G75*
G70*
%OFA0B0*%
%FSLAX24Y24*%
%IPPOS*%
%LPD*%
%AMOC8*
5,1,8,0,0,1.08239X$1,22.5*
%
%ADD10C,0.0080*%
%ADD11C,0.0100*%
%ADD12C,0.0010*%
%ADD13C,0.0060*%
%ADD14C,0.0040*%
%ADD15C,0.0050*%
D10*
X004299Y012720D02*
X001849Y015170D01*
X001849Y015392D01*
X004299Y017842D01*
X004521Y017842D01*
X006971Y015392D01*
X006971Y015170D01*
X004521Y012720D01*
X004299Y012720D01*
D11*
X004299Y017508D02*
X004301Y017528D01*
X004306Y017548D01*
X004316Y017566D01*
X004328Y017583D01*
X004343Y017597D01*
X004361Y017607D01*
X004380Y017615D01*
X004400Y017619D01*
X004420Y017619D01*
X004440Y017615D01*
X004459Y017607D01*
X004477Y017597D01*
X004492Y017583D01*
X004504Y017566D01*
X004514Y017548D01*
X004519Y017528D01*
X004521Y017508D01*
X004519Y017488D01*
X004514Y017468D01*
X004504Y017450D01*
X004492Y017433D01*
X004477Y017419D01*
X004459Y017409D01*
X004440Y017401D01*
X004420Y017397D01*
X004400Y017397D01*
X004380Y017401D01*
X004361Y017409D01*
X004343Y017419D01*
X004328Y017433D01*
X004316Y017450D01*
X004306Y017468D01*
X004301Y017488D01*
X004299Y017508D01*
D12*
X004170Y017296D02*
X004081Y017208D01*
X004081Y017173D01*
X004117Y017137D01*
X004152Y017137D01*
X004240Y017226D01*
X004256Y017175D02*
X004292Y017175D01*
X004327Y017139D01*
X004327Y017104D01*
X004343Y017053D02*
X004413Y017053D01*
X004307Y016947D01*
X004272Y016982D02*
X004343Y016911D01*
X004256Y017033D02*
X004274Y017051D01*
X004274Y017086D01*
X004238Y017121D01*
X004238Y017157D01*
X004256Y017175D01*
X004327Y017175D02*
X004185Y017033D01*
X004185Y017068D02*
X004221Y017033D01*
X004256Y017033D01*
X004185Y017068D02*
X004185Y017104D01*
D13*
X000410Y004531D02*
X000660Y004281D01*
X001160Y004281D01*
X001410Y004531D01*
X001410Y005031D01*
X001160Y005281D01*
X000660Y005281D01*
X000410Y005031D01*
X000410Y004531D01*
X000660Y005281D02*
X000410Y005531D01*
X000410Y006031D01*
X000660Y006281D01*
X001160Y006281D01*
X001410Y006031D01*
X001410Y005531D01*
X001160Y005281D01*
X001160Y006281D02*
X001410Y006531D01*
X001410Y007031D01*
X001160Y007281D01*
X000660Y007281D01*
X000410Y007031D01*
X000410Y006531D01*
X000660Y006281D01*
X000660Y007281D02*
X000410Y007531D01*
X000410Y008031D01*
X000660Y008281D01*
X000410Y008531D01*
X000410Y009031D01*
X000660Y009281D01*
X000410Y009531D01*
X000410Y010031D01*
X000660Y010281D01*
X000410Y010531D01*
X000410Y011031D01*
X000660Y011281D01*
X000410Y011531D01*
X000410Y012031D01*
X000660Y012281D01*
X000410Y012531D01*
X000410Y013031D01*
X000660Y013281D01*
X000410Y013531D01*
X000410Y014031D01*
X000660Y014281D01*
X000410Y014531D01*
X000410Y015031D01*
X000660Y015281D01*
X000410Y015531D01*
X000410Y016031D01*
X000660Y016281D01*
X000410Y016531D01*
X000410Y017031D01*
X000660Y017281D01*
X000410Y017531D01*
X000410Y018031D01*
X000660Y018281D01*
X000410Y018531D01*
X000410Y019031D01*
X000660Y019281D01*
X000410Y019531D01*
X000410Y020031D01*
X000660Y020281D01*
X000410Y020531D01*
X000410Y021031D01*
X000660Y021281D01*
X000410Y021531D01*
X000410Y022031D01*
X000660Y022281D01*
X000410Y022531D01*
X000410Y023031D01*
X000660Y023281D01*
X000410Y023531D01*
X000410Y024031D01*
X000660Y024281D01*
X000410Y024531D01*
X000410Y025031D01*
X000660Y025281D01*
X000410Y025531D01*
X000410Y026031D01*
X000660Y026281D01*
X001160Y026281D01*
X001410Y026031D01*
X001410Y025531D01*
X001160Y025281D01*
X001410Y025031D01*
X001410Y024531D01*
X001160Y024281D01*
X000660Y024281D01*
X000660Y025281D02*
X001160Y025281D01*
X001160Y024281D02*
X001410Y024031D01*
X001410Y023531D01*
X001160Y023281D01*
X001410Y023031D01*
X001410Y022531D01*
X001160Y022281D01*
X001410Y022031D01*
X001410Y021531D01*
X001160Y021281D01*
X000660Y021281D01*
X000660Y020281D02*
X001160Y020281D01*
X001410Y020031D01*
X001410Y019531D01*
X001160Y019281D01*
X001410Y019031D01*
X001410Y018531D01*
X001160Y018281D01*
X000660Y018281D01*
X000660Y017281D02*
X001160Y017281D01*
X001410Y017031D01*
X001410Y016531D01*
X001160Y016281D01*
X001410Y016031D01*
X001410Y015531D01*
X001160Y015281D01*
X000660Y015281D01*
X000660Y014281D02*
X001160Y014281D01*
X001410Y014031D01*
X001410Y013531D01*
X001160Y013281D01*
X001410Y013031D01*
X001410Y012531D01*
X001160Y012281D01*
X000660Y012281D01*
X000660Y013281D02*
X001160Y013281D01*
X001160Y012281D02*
X001410Y012031D01*
X001410Y011531D01*
X001160Y011281D01*
X001410Y011031D01*
X001410Y010531D01*
X001160Y010281D01*
X001410Y010031D01*
X001410Y009531D01*
X001160Y009281D01*
X000660Y009281D01*
X000660Y008281D02*
X001160Y008281D01*
X001410Y008031D01*
X001410Y007531D01*
X001160Y007281D01*
X001160Y008281D02*
X001410Y008531D01*
X001410Y009031D01*
X001160Y009281D01*
X001160Y010281D02*
X000660Y010281D01*
X000660Y011281D02*
X001160Y011281D01*
X001160Y014281D02*
X001410Y014531D01*
X001410Y015031D01*
X001160Y015281D01*
X001160Y016281D02*
X000660Y016281D01*
X001160Y017281D02*
X001410Y017531D01*
X001410Y018031D01*
X001160Y018281D01*
X001160Y019281D02*
X000660Y019281D01*
X001160Y020281D02*
X001410Y020531D01*
X001410Y021031D01*
X001160Y021281D01*
X001160Y022281D02*
X000660Y022281D01*
X000660Y023281D02*
X001160Y023281D01*
X007410Y023031D02*
X007410Y022531D01*
X007660Y022281D01*
X008160Y022281D01*
X008410Y022531D01*
X008410Y023031D01*
X008160Y023281D01*
X008410Y023531D01*
X008410Y024031D01*
X008160Y024281D01*
X008410Y024531D01*
X008410Y025031D01*
X008160Y025281D01*
X008410Y025531D01*
X008410Y026031D01*
X008160Y026281D01*
X007660Y026281D01*
X007410Y026031D01*
X007410Y025531D01*
X007660Y025281D01*
X008160Y025281D01*
X008160Y024281D02*
X007660Y024281D01*
X007410Y024531D01*
X007410Y025031D01*
X007660Y025281D01*
X007660Y024281D02*
X007410Y024031D01*
X007410Y023531D01*
X007660Y023281D01*
X008160Y023281D01*
X008160Y022281D02*
X008410Y022031D01*
X008410Y021531D01*
X008160Y021281D01*
X008410Y021031D01*
X008410Y020531D01*
X008160Y020281D01*
X008410Y020031D01*
X008410Y019531D01*
X008160Y019281D01*
X008410Y019031D01*
X008410Y018531D01*
X008160Y018281D01*
X008410Y018031D01*
X008410Y017531D01*
X008160Y017281D01*
X008410Y017031D01*
X008410Y016531D01*
X008160Y016281D01*
X008410Y016031D01*
X008410Y015531D01*
X008160Y015281D01*
X008410Y015031D01*
X008410Y014531D01*
X008160Y014281D01*
X008410Y014031D01*
X008410Y013531D01*
X008160Y013281D01*
X008410Y013031D01*
X008410Y012531D01*
X008160Y012281D01*
X008410Y012031D01*
X008410Y011531D01*
X008160Y011281D01*
X008410Y011031D01*
X008410Y010531D01*
X008160Y010281D01*
X008410Y010031D01*
X008410Y009531D01*
X008160Y009281D01*
X008410Y009031D01*
X008410Y008531D01*
X008160Y008281D01*
X008410Y008031D01*
X008410Y007531D01*
X008160Y007281D01*
X008410Y007031D01*
X008410Y006531D01*
X008160Y006281D01*
X008410Y006031D01*
X008410Y005531D01*
X008160Y005281D01*
X008410Y005031D01*
X008410Y004531D01*
X008160Y004281D01*
X007660Y004281D01*
X007410Y004531D01*
X007410Y005031D01*
X007660Y005281D01*
X007410Y005531D01*
X007410Y006031D01*
X007660Y006281D01*
X008160Y006281D01*
X008160Y005281D02*
X007660Y005281D01*
X007660Y006281D02*
X007410Y006531D01*
X007410Y007031D01*
X007660Y007281D01*
X007410Y007531D01*
X007410Y008031D01*
X007660Y008281D01*
X007410Y008531D01*
X007410Y009031D01*
X007660Y009281D01*
X008160Y009281D01*
X008160Y008281D02*
X007660Y008281D01*
X007660Y009281D02*
X007410Y009531D01*
X007410Y010031D01*
X007660Y010281D01*
X007410Y010531D01*
X007410Y011031D01*
X007660Y011281D01*
X007410Y011531D01*
X007410Y012031D01*
X007660Y012281D01*
X008160Y012281D01*
X008160Y013281D02*
X007660Y013281D01*
X007410Y013531D01*
X007410Y014031D01*
X007660Y014281D01*
X007410Y014531D01*
X007410Y015031D01*
X007660Y015281D01*
X008160Y015281D01*
X008160Y014281D02*
X007660Y014281D01*
X007660Y013281D02*
X007410Y013031D01*
X007410Y012531D01*
X007660Y012281D01*
X007660Y011281D02*
X008160Y011281D01*
X008160Y010281D02*
X007660Y010281D01*
X007660Y007281D02*
X008160Y007281D01*
X007660Y015281D02*
X007410Y015531D01*
X007410Y016031D01*
X007660Y016281D01*
X007410Y016531D01*
X007410Y017031D01*
X007660Y017281D01*
X007410Y017531D01*
X007410Y018031D01*
X007660Y018281D01*
X008160Y018281D01*
X008160Y017281D02*
X007660Y017281D01*
X007660Y016281D02*
X008160Y016281D01*
X007660Y018281D02*
X007410Y018531D01*
X007410Y019031D01*
X007660Y019281D01*
X007410Y019531D01*
X007410Y020031D01*
X007660Y020281D01*
X007410Y020531D01*
X007410Y021031D01*
X007660Y021281D01*
X008160Y021281D01*
X008160Y020281D02*
X007660Y020281D01*
X007660Y021281D02*
X007410Y021531D01*
X007410Y022031D01*
X007660Y022281D01*
X007410Y023031D02*
X007660Y023281D01*
X007660Y019281D02*
X008160Y019281D01*
D14*
X004675Y005662D02*
X004444Y005662D01*
X004444Y005202D01*
X004675Y005202D01*
X004751Y005279D01*
X004751Y005355D01*
X004675Y005432D01*
X004444Y005432D01*
X004291Y005355D02*
X004291Y005279D01*
X004214Y005202D01*
X004061Y005202D01*
X003984Y005279D01*
X004061Y005432D02*
X003984Y005509D01*
X003984Y005586D01*
X004061Y005662D01*
X004214Y005662D01*
X004291Y005586D01*
X004214Y005432D02*
X004291Y005355D01*
X004214Y005432D02*
X004061Y005432D01*
X003831Y005279D02*
X003831Y005662D01*
X003831Y005279D02*
X003754Y005202D01*
X003600Y005202D01*
X003524Y005279D01*
X003524Y005662D01*
X004675Y005662D02*
X004751Y005586D01*
X004751Y005509D01*
X004675Y005432D01*
X004201Y001420D02*
X004201Y001420D01*
D15*
X003783Y004611D02*
X003075Y004611D01*
X003075Y003627D02*
X003075Y002564D01*
X003075Y000989D02*
X006145Y000989D01*
X006145Y002800D02*
X006145Y003627D01*
X006145Y004611D02*
X005437Y004611D01*
M02*
