G75*
G70*
%OFA0B0*%
%FSLAX24Y24*%
%IPPOS*%
%LPD*%
%AMOC8*
5,1,8,0,0,1.08239X$1,22.5*
%
%ADD10C,0.0030*%
%ADD11C,0.0000*%
D10*
X003075Y004496D02*
X003260Y004496D01*
X003322Y004558D01*
X003322Y004620D01*
X003260Y004681D01*
X003075Y004681D01*
X003075Y004496D02*
X003075Y004866D01*
X003260Y004866D01*
X003322Y004805D01*
X003322Y004743D01*
X003260Y004681D01*
X003198Y005096D02*
X003198Y005466D01*
X003075Y005466D02*
X003322Y005466D01*
X003443Y005405D02*
X003443Y005158D01*
X003505Y005096D01*
X003628Y005096D01*
X003690Y005158D01*
X003690Y005405D01*
X003628Y005466D01*
X003505Y005466D01*
X003443Y005405D01*
X003567Y005220D02*
X003690Y005096D01*
X003812Y005096D02*
X003812Y005466D01*
X004059Y005466D01*
X004180Y005466D02*
X004180Y005096D01*
X004180Y005220D02*
X004365Y005220D01*
X004427Y005281D01*
X004427Y005405D01*
X004365Y005466D01*
X004180Y005466D01*
X003935Y005281D02*
X003812Y005281D01*
X003812Y004743D02*
X003750Y004681D01*
X003750Y004558D01*
X003812Y004496D01*
X003935Y004496D01*
X003997Y004620D02*
X003750Y004620D01*
X003812Y004743D02*
X003935Y004743D01*
X003997Y004681D01*
X003997Y004620D01*
X004119Y004558D02*
X004180Y004620D01*
X004365Y004620D01*
X004365Y004681D02*
X004365Y004496D01*
X004180Y004496D01*
X004119Y004558D01*
X004180Y004743D02*
X004304Y004743D01*
X004365Y004681D01*
X004487Y004620D02*
X004672Y004743D01*
X004487Y004620D02*
X004672Y004496D01*
X004794Y004558D02*
X004856Y004496D01*
X004979Y004496D01*
X005041Y004558D01*
X005041Y004681D01*
X004979Y004743D01*
X004856Y004743D01*
X004794Y004681D01*
X004794Y004558D01*
X004795Y005281D02*
X004548Y005281D01*
X004487Y004866D02*
X004487Y004496D01*
X004917Y005281D02*
X005163Y005281D01*
X005285Y005281D02*
X005532Y005281D01*
X005470Y005096D02*
X005470Y005466D01*
X005285Y005281D01*
X005102Y005096D02*
X005102Y005466D01*
X004917Y005281D01*
X005162Y004743D02*
X005162Y004558D01*
X005224Y004496D01*
X005409Y004496D01*
X005409Y004743D01*
X005530Y004743D02*
X005654Y004743D01*
X005592Y004805D02*
X005592Y004558D01*
X005654Y004496D01*
X003628Y004743D02*
X003567Y004743D01*
X003443Y004620D01*
X003443Y004743D02*
X003443Y004496D01*
D11*
X000110Y003981D02*
X000110Y026581D01*
X008660Y026581D01*
X008660Y003981D01*
X000110Y003981D01*
M02*
