G75*
G70*
%OFA0B0*%
%FSLAX24Y24*%
%IPPOS*%
%LPD*%
%AMOC8*
5,1,8,0,0,1.08239X$1,22.5*
%
%ADD10R,0.0591X0.0197*%
%ADD11R,0.0197X0.0591*%
D10*
G36*
X005050Y012276D02*
X004634Y012692D01*
X004772Y012830D01*
X005188Y012414D01*
X005050Y012276D01*
G37*
G36*
X005273Y012499D02*
X004857Y012915D01*
X004995Y013053D01*
X005411Y012637D01*
X005273Y012499D01*
G37*
G36*
X005496Y012721D02*
X005080Y013137D01*
X005218Y013275D01*
X005634Y012859D01*
X005496Y012721D01*
G37*
G36*
X005718Y012944D02*
X005302Y013360D01*
X005440Y013498D01*
X005856Y013082D01*
X005718Y012944D01*
G37*
G36*
X005941Y013167D02*
X005525Y013583D01*
X005663Y013721D01*
X006079Y013305D01*
X005941Y013167D01*
G37*
G36*
X006164Y013389D02*
X005748Y013805D01*
X005886Y013943D01*
X006302Y013527D01*
X006164Y013389D01*
G37*
G36*
X006386Y013612D02*
X005970Y014028D01*
X006108Y014166D01*
X006524Y013750D01*
X006386Y013612D01*
G37*
G36*
X006609Y013835D02*
X006193Y014251D01*
X006331Y014389D01*
X006747Y013973D01*
X006609Y013835D01*
G37*
G36*
X006832Y014058D02*
X006416Y014474D01*
X006554Y014612D01*
X006970Y014196D01*
X006832Y014058D01*
G37*
G36*
X007054Y014280D02*
X006638Y014696D01*
X006776Y014834D01*
X007192Y014418D01*
X007054Y014280D01*
G37*
G36*
X007277Y014503D02*
X006861Y014919D01*
X006999Y015057D01*
X007415Y014641D01*
X007277Y014503D01*
G37*
G36*
X004048Y017732D02*
X003632Y018148D01*
X003770Y018286D01*
X004186Y017870D01*
X004048Y017732D01*
G37*
G36*
X003825Y017510D02*
X003409Y017926D01*
X003547Y018064D01*
X003963Y017648D01*
X003825Y017510D01*
G37*
G36*
X003602Y017287D02*
X003186Y017703D01*
X003324Y017841D01*
X003740Y017425D01*
X003602Y017287D01*
G37*
G36*
X003380Y017064D02*
X002964Y017480D01*
X003102Y017618D01*
X003518Y017202D01*
X003380Y017064D01*
G37*
G36*
X003157Y016841D02*
X002741Y017257D01*
X002879Y017395D01*
X003295Y016979D01*
X003157Y016841D01*
G37*
G36*
X002934Y016619D02*
X002518Y017035D01*
X002656Y017173D01*
X003072Y016757D01*
X002934Y016619D01*
G37*
G36*
X002712Y016396D02*
X002296Y016812D01*
X002434Y016950D01*
X002850Y016534D01*
X002712Y016396D01*
G37*
G36*
X002489Y016173D02*
X002073Y016589D01*
X002211Y016727D01*
X002627Y016311D01*
X002489Y016173D01*
G37*
G36*
X002266Y015951D02*
X001850Y016367D01*
X001988Y016505D01*
X002404Y016089D01*
X002266Y015951D01*
G37*
G36*
X002044Y015728D02*
X001628Y016144D01*
X001766Y016282D01*
X002182Y015866D01*
X002044Y015728D01*
G37*
G36*
X001821Y015505D02*
X001405Y015921D01*
X001543Y016059D01*
X001959Y015643D01*
X001821Y015505D01*
G37*
D11*
G36*
X003770Y012276D02*
X003632Y012414D01*
X004048Y012830D01*
X004186Y012692D01*
X003770Y012276D01*
G37*
G36*
X003547Y012499D02*
X003409Y012637D01*
X003825Y013053D01*
X003963Y012915D01*
X003547Y012499D01*
G37*
G36*
X003324Y012721D02*
X003186Y012859D01*
X003602Y013275D01*
X003740Y013137D01*
X003324Y012721D01*
G37*
G36*
X003102Y012944D02*
X002964Y013082D01*
X003380Y013498D01*
X003518Y013360D01*
X003102Y012944D01*
G37*
G36*
X002879Y013167D02*
X002741Y013305D01*
X003157Y013721D01*
X003295Y013583D01*
X002879Y013167D01*
G37*
G36*
X002656Y013389D02*
X002518Y013527D01*
X002934Y013943D01*
X003072Y013805D01*
X002656Y013389D01*
G37*
G36*
X002434Y013612D02*
X002296Y013750D01*
X002712Y014166D01*
X002850Y014028D01*
X002434Y013612D01*
G37*
G36*
X002211Y013835D02*
X002073Y013973D01*
X002489Y014389D01*
X002627Y014251D01*
X002211Y013835D01*
G37*
G36*
X001988Y014058D02*
X001850Y014196D01*
X002266Y014612D01*
X002404Y014474D01*
X001988Y014058D01*
G37*
G36*
X001766Y014280D02*
X001628Y014418D01*
X002044Y014834D01*
X002182Y014696D01*
X001766Y014280D01*
G37*
G36*
X001543Y014503D02*
X001405Y014641D01*
X001821Y015057D01*
X001959Y014919D01*
X001543Y014503D01*
G37*
G36*
X004772Y017732D02*
X004634Y017870D01*
X005050Y018286D01*
X005188Y018148D01*
X004772Y017732D01*
G37*
G36*
X004995Y017510D02*
X004857Y017648D01*
X005273Y018064D01*
X005411Y017926D01*
X004995Y017510D01*
G37*
G36*
X005218Y017287D02*
X005080Y017425D01*
X005496Y017841D01*
X005634Y017703D01*
X005218Y017287D01*
G37*
G36*
X005440Y017064D02*
X005302Y017202D01*
X005718Y017618D01*
X005856Y017480D01*
X005440Y017064D01*
G37*
G36*
X005663Y016841D02*
X005525Y016979D01*
X005941Y017395D01*
X006079Y017257D01*
X005663Y016841D01*
G37*
G36*
X005886Y016619D02*
X005748Y016757D01*
X006164Y017173D01*
X006302Y017035D01*
X005886Y016619D01*
G37*
G36*
X006108Y016396D02*
X005970Y016534D01*
X006386Y016950D01*
X006524Y016812D01*
X006108Y016396D01*
G37*
G36*
X006331Y016173D02*
X006193Y016311D01*
X006609Y016727D01*
X006747Y016589D01*
X006331Y016173D01*
G37*
G36*
X006554Y015951D02*
X006416Y016089D01*
X006832Y016505D01*
X006970Y016367D01*
X006554Y015951D01*
G37*
G36*
X006776Y015728D02*
X006638Y015866D01*
X007054Y016282D01*
X007192Y016144D01*
X006776Y015728D01*
G37*
G36*
X006999Y015505D02*
X006861Y015643D01*
X007277Y016059D01*
X007415Y015921D01*
X006999Y015505D01*
G37*
M02*
