G75*
G70*
%OFA0B0*%
%FSLAX24Y24*%
%IPPOS*%
%LPD*%
%AMOC8*
5,1,8,0,0,1.08239X$1,22.5*
%
%ADD10C,0.0600*%
%ADD11C,0.1500*%
%ADD12C,0.0476*%
D10*
X000610Y004781D02*
X001210Y004781D01*
X001210Y005781D02*
X000610Y005781D01*
X000610Y006781D02*
X001210Y006781D01*
X001210Y007781D02*
X000610Y007781D01*
X000610Y008781D02*
X001210Y008781D01*
X001210Y009781D02*
X000610Y009781D01*
X000610Y010781D02*
X001210Y010781D01*
X001210Y011781D02*
X000610Y011781D01*
X000610Y012781D02*
X001210Y012781D01*
X001210Y013781D02*
X000610Y013781D01*
X000610Y014781D02*
X001210Y014781D01*
X001210Y015781D02*
X000610Y015781D01*
X000610Y016781D02*
X001210Y016781D01*
X001210Y017781D02*
X000610Y017781D01*
X000610Y018781D02*
X001210Y018781D01*
X001210Y019781D02*
X000610Y019781D01*
X000610Y020781D02*
X001210Y020781D01*
X001210Y021781D02*
X000610Y021781D01*
X000610Y022781D02*
X001210Y022781D01*
X001210Y023781D02*
X000610Y023781D01*
X000610Y024781D02*
X001210Y024781D01*
X001210Y025781D02*
X000610Y025781D01*
X007610Y025781D02*
X008210Y025781D01*
X008210Y024781D02*
X007610Y024781D01*
X007610Y023781D02*
X008210Y023781D01*
X008210Y022781D02*
X007610Y022781D01*
X007610Y021781D02*
X008210Y021781D01*
X008210Y020781D02*
X007610Y020781D01*
X007610Y019781D02*
X008210Y019781D01*
X008210Y018781D02*
X007610Y018781D01*
X007610Y017781D02*
X008210Y017781D01*
X008210Y016781D02*
X007610Y016781D01*
X007610Y015781D02*
X008210Y015781D01*
X008210Y014781D02*
X007610Y014781D01*
X007610Y013781D02*
X008210Y013781D01*
X008210Y012781D02*
X007610Y012781D01*
X007610Y011781D02*
X008210Y011781D01*
X008210Y010781D02*
X007610Y010781D01*
X007610Y009781D02*
X008210Y009781D01*
X008210Y008781D02*
X007610Y008781D01*
X007610Y007781D02*
X008210Y007781D01*
X008210Y006781D02*
X007610Y006781D01*
X007610Y005781D02*
X008210Y005781D01*
X008210Y004781D02*
X007610Y004781D01*
D11*
X006047Y002780D03*
X003173Y002780D03*
D12*
X003980Y004808D02*
X003980Y005283D01*
X004295Y004296D02*
X004295Y003820D01*
X004610Y004808D02*
X004610Y005283D01*
X004925Y004296D02*
X004925Y003820D01*
X005240Y004808D02*
X005240Y005283D01*
M02*
