G75*
G70*
%OFA0B0*%
%FSLAX24Y24*%
%IPPOS*%
%LPD*%
%AMOC8*
5,1,8,0,0,1.08239X$1,22.5*
%
%ADD10R,0.0591X0.0197*%
%ADD11R,0.0197X0.0591*%
%ADD12C,0.0600*%
%ADD13C,0.1500*%
%ADD14C,0.0476*%
%ADD15C,0.0157*%
%ADD16C,0.0100*%
D10*
G36*
X005050Y012276D02*
X004634Y012692D01*
X004772Y012830D01*
X005188Y012414D01*
X005050Y012276D01*
G37*
G36*
X005273Y012499D02*
X004857Y012915D01*
X004995Y013053D01*
X005411Y012637D01*
X005273Y012499D01*
G37*
G36*
X005496Y012721D02*
X005080Y013137D01*
X005218Y013275D01*
X005634Y012859D01*
X005496Y012721D01*
G37*
G36*
X005718Y012944D02*
X005302Y013360D01*
X005440Y013498D01*
X005856Y013082D01*
X005718Y012944D01*
G37*
G36*
X005941Y013167D02*
X005525Y013583D01*
X005663Y013721D01*
X006079Y013305D01*
X005941Y013167D01*
G37*
G36*
X006164Y013389D02*
X005748Y013805D01*
X005886Y013943D01*
X006302Y013527D01*
X006164Y013389D01*
G37*
G36*
X006386Y013612D02*
X005970Y014028D01*
X006108Y014166D01*
X006524Y013750D01*
X006386Y013612D01*
G37*
G36*
X006609Y013835D02*
X006193Y014251D01*
X006331Y014389D01*
X006747Y013973D01*
X006609Y013835D01*
G37*
G36*
X006832Y014058D02*
X006416Y014474D01*
X006554Y014612D01*
X006970Y014196D01*
X006832Y014058D01*
G37*
G36*
X007054Y014280D02*
X006638Y014696D01*
X006776Y014834D01*
X007192Y014418D01*
X007054Y014280D01*
G37*
G36*
X007277Y014503D02*
X006861Y014919D01*
X006999Y015057D01*
X007415Y014641D01*
X007277Y014503D01*
G37*
G36*
X004048Y017732D02*
X003632Y018148D01*
X003770Y018286D01*
X004186Y017870D01*
X004048Y017732D01*
G37*
G36*
X003825Y017510D02*
X003409Y017926D01*
X003547Y018064D01*
X003963Y017648D01*
X003825Y017510D01*
G37*
G36*
X003602Y017287D02*
X003186Y017703D01*
X003324Y017841D01*
X003740Y017425D01*
X003602Y017287D01*
G37*
G36*
X003380Y017064D02*
X002964Y017480D01*
X003102Y017618D01*
X003518Y017202D01*
X003380Y017064D01*
G37*
G36*
X003157Y016841D02*
X002741Y017257D01*
X002879Y017395D01*
X003295Y016979D01*
X003157Y016841D01*
G37*
G36*
X002934Y016619D02*
X002518Y017035D01*
X002656Y017173D01*
X003072Y016757D01*
X002934Y016619D01*
G37*
G36*
X002712Y016396D02*
X002296Y016812D01*
X002434Y016950D01*
X002850Y016534D01*
X002712Y016396D01*
G37*
G36*
X002489Y016173D02*
X002073Y016589D01*
X002211Y016727D01*
X002627Y016311D01*
X002489Y016173D01*
G37*
G36*
X002266Y015951D02*
X001850Y016367D01*
X001988Y016505D01*
X002404Y016089D01*
X002266Y015951D01*
G37*
G36*
X002044Y015728D02*
X001628Y016144D01*
X001766Y016282D01*
X002182Y015866D01*
X002044Y015728D01*
G37*
G36*
X001821Y015505D02*
X001405Y015921D01*
X001543Y016059D01*
X001959Y015643D01*
X001821Y015505D01*
G37*
D11*
G36*
X001543Y014503D02*
X001405Y014641D01*
X001821Y015057D01*
X001959Y014919D01*
X001543Y014503D01*
G37*
G36*
X001766Y014280D02*
X001628Y014418D01*
X002044Y014834D01*
X002182Y014696D01*
X001766Y014280D01*
G37*
G36*
X001988Y014058D02*
X001850Y014196D01*
X002266Y014612D01*
X002404Y014474D01*
X001988Y014058D01*
G37*
G36*
X002211Y013835D02*
X002073Y013973D01*
X002489Y014389D01*
X002627Y014251D01*
X002211Y013835D01*
G37*
G36*
X002434Y013612D02*
X002296Y013750D01*
X002712Y014166D01*
X002850Y014028D01*
X002434Y013612D01*
G37*
G36*
X002656Y013389D02*
X002518Y013527D01*
X002934Y013943D01*
X003072Y013805D01*
X002656Y013389D01*
G37*
G36*
X002879Y013167D02*
X002741Y013305D01*
X003157Y013721D01*
X003295Y013583D01*
X002879Y013167D01*
G37*
G36*
X003102Y012944D02*
X002964Y013082D01*
X003380Y013498D01*
X003518Y013360D01*
X003102Y012944D01*
G37*
G36*
X003324Y012721D02*
X003186Y012859D01*
X003602Y013275D01*
X003740Y013137D01*
X003324Y012721D01*
G37*
G36*
X003547Y012499D02*
X003409Y012637D01*
X003825Y013053D01*
X003963Y012915D01*
X003547Y012499D01*
G37*
G36*
X003770Y012276D02*
X003632Y012414D01*
X004048Y012830D01*
X004186Y012692D01*
X003770Y012276D01*
G37*
G36*
X005218Y017287D02*
X005080Y017425D01*
X005496Y017841D01*
X005634Y017703D01*
X005218Y017287D01*
G37*
G36*
X004995Y017510D02*
X004857Y017648D01*
X005273Y018064D01*
X005411Y017926D01*
X004995Y017510D01*
G37*
G36*
X004772Y017732D02*
X004634Y017870D01*
X005050Y018286D01*
X005188Y018148D01*
X004772Y017732D01*
G37*
G36*
X005440Y017064D02*
X005302Y017202D01*
X005718Y017618D01*
X005856Y017480D01*
X005440Y017064D01*
G37*
G36*
X005663Y016841D02*
X005525Y016979D01*
X005941Y017395D01*
X006079Y017257D01*
X005663Y016841D01*
G37*
G36*
X005886Y016619D02*
X005748Y016757D01*
X006164Y017173D01*
X006302Y017035D01*
X005886Y016619D01*
G37*
G36*
X006108Y016396D02*
X005970Y016534D01*
X006386Y016950D01*
X006524Y016812D01*
X006108Y016396D01*
G37*
G36*
X006331Y016173D02*
X006193Y016311D01*
X006609Y016727D01*
X006747Y016589D01*
X006331Y016173D01*
G37*
G36*
X006554Y015951D02*
X006416Y016089D01*
X006832Y016505D01*
X006970Y016367D01*
X006554Y015951D01*
G37*
G36*
X006776Y015728D02*
X006638Y015866D01*
X007054Y016282D01*
X007192Y016144D01*
X006776Y015728D01*
G37*
G36*
X006999Y015505D02*
X006861Y015643D01*
X007277Y016059D01*
X007415Y015921D01*
X006999Y015505D01*
G37*
D12*
X007610Y015781D02*
X008210Y015781D01*
X008210Y016781D02*
X007610Y016781D01*
X007610Y017781D02*
X008210Y017781D01*
X008210Y018781D02*
X007610Y018781D01*
X007610Y019781D02*
X008210Y019781D01*
X008210Y020781D02*
X007610Y020781D01*
X007610Y021781D02*
X008210Y021781D01*
X008210Y022781D02*
X007610Y022781D01*
X007610Y023781D02*
X008210Y023781D01*
X008210Y024781D02*
X007610Y024781D01*
X007610Y025781D02*
X008210Y025781D01*
X008210Y014781D02*
X007610Y014781D01*
X007610Y013781D02*
X008210Y013781D01*
X008210Y012781D02*
X007610Y012781D01*
X007610Y011781D02*
X008210Y011781D01*
X008210Y010781D02*
X007610Y010781D01*
X007610Y009781D02*
X008210Y009781D01*
X008210Y008781D02*
X007610Y008781D01*
X007610Y007781D02*
X008210Y007781D01*
X008210Y006781D02*
X007610Y006781D01*
X007610Y005781D02*
X008210Y005781D01*
X008210Y004781D02*
X007610Y004781D01*
X001210Y004781D02*
X000610Y004781D01*
X000610Y005781D02*
X001210Y005781D01*
X001210Y006781D02*
X000610Y006781D01*
X000610Y007781D02*
X001210Y007781D01*
X001210Y008781D02*
X000610Y008781D01*
X000610Y009781D02*
X001210Y009781D01*
X001210Y010781D02*
X000610Y010781D01*
X000610Y011781D02*
X001210Y011781D01*
X001210Y012781D02*
X000610Y012781D01*
X000610Y013781D02*
X001210Y013781D01*
X001210Y014781D02*
X000610Y014781D01*
X000610Y015781D02*
X001210Y015781D01*
X001210Y016781D02*
X000610Y016781D01*
X000610Y017781D02*
X001210Y017781D01*
X001210Y018781D02*
X000610Y018781D01*
X000610Y019781D02*
X001210Y019781D01*
X001210Y020781D02*
X000610Y020781D01*
X000610Y021781D02*
X001210Y021781D01*
X001210Y022781D02*
X000610Y022781D01*
X000610Y023781D02*
X001210Y023781D01*
X001210Y024781D02*
X000610Y024781D01*
X000610Y025781D02*
X001210Y025781D01*
D13*
X003173Y002780D03*
X006047Y002780D03*
D14*
X005240Y004808D02*
X005240Y005283D01*
X004925Y004296D02*
X004925Y003820D01*
X004610Y004808D02*
X004610Y005283D01*
X004295Y004296D02*
X004295Y003820D01*
X003980Y004808D02*
X003980Y005283D01*
D15*
X001110Y004981D02*
X001110Y003981D01*
X004110Y003981D01*
X004295Y004296D01*
X004610Y004808D02*
X004610Y004981D01*
X004610Y005981D01*
X005560Y006931D01*
X005610Y006981D01*
X005560Y006931D02*
X007710Y004781D01*
X007910Y004781D01*
X007910Y005781D02*
X007710Y005781D01*
X005360Y008131D01*
X005360Y012531D01*
X005134Y012757D01*
X005134Y012776D01*
X004938Y012553D02*
X005110Y012381D01*
X005110Y007381D01*
X005560Y006931D01*
X005240Y004808D02*
X005110Y004481D01*
X004925Y004296D01*
X003710Y007381D02*
X001110Y004781D01*
X000910Y004781D01*
X001110Y004981D01*
X001110Y005781D02*
X000910Y005781D01*
X001110Y005781D02*
X003460Y008131D01*
X003460Y012531D01*
X003686Y012757D01*
X003686Y012776D01*
X003882Y012553D02*
X003710Y012381D01*
X003710Y007381D01*
X003210Y008881D02*
X001110Y006781D01*
X000910Y006781D01*
X000910Y007781D02*
X001110Y007781D01*
X002960Y009631D01*
X002960Y012931D01*
X003241Y013212D01*
X003241Y013221D01*
X003018Y013439D02*
X002710Y013131D01*
X002710Y010381D01*
X001110Y008781D01*
X000910Y008781D01*
X000910Y009781D02*
X001110Y009781D01*
X002460Y011131D01*
X002460Y013331D01*
X002795Y013666D01*
X002573Y013889D02*
X002568Y013889D01*
X002210Y013531D01*
X002210Y011881D01*
X001110Y010781D01*
X000910Y010781D01*
X000910Y011781D02*
X001110Y011781D01*
X001960Y012631D01*
X001960Y013731D01*
X002341Y014112D01*
X002350Y014112D01*
X002127Y014335D02*
X002113Y014335D01*
X001710Y013931D01*
X001710Y013381D01*
X001110Y012781D01*
X000910Y012781D01*
X000910Y013781D02*
X001110Y013781D01*
X001810Y014481D01*
X001905Y014557D01*
X001682Y014780D02*
X001610Y014781D01*
X000910Y014781D01*
X000910Y015781D02*
X001610Y015781D01*
X001682Y015782D01*
X001905Y016005D02*
X001810Y016081D01*
X001110Y016781D01*
X000910Y016781D01*
X001710Y017181D02*
X001110Y017781D01*
X000910Y017781D01*
X000910Y018781D02*
X001110Y018781D01*
X001960Y017931D01*
X001960Y016840D01*
X002350Y016450D01*
X002127Y016228D02*
X001710Y016645D01*
X001710Y017181D01*
X002210Y017036D02*
X002210Y018681D01*
X001110Y019781D01*
X000910Y019781D01*
X000910Y020781D02*
X001110Y020781D01*
X002460Y019431D01*
X002460Y017231D01*
X002795Y016896D01*
X002795Y016896D01*
X002573Y016673D02*
X002210Y017036D01*
X002710Y017431D02*
X002710Y020181D01*
X001110Y021781D01*
X000910Y021781D01*
X000910Y022781D02*
X001110Y022781D01*
X002960Y020931D01*
X002960Y017631D01*
X003241Y017350D01*
X003241Y017341D01*
X003018Y017123D02*
X002710Y017431D01*
X003018Y017123D02*
X003018Y017118D01*
X003463Y017578D02*
X003210Y017831D01*
X003210Y021681D01*
X001110Y023781D01*
X000910Y023781D01*
X000910Y024781D02*
X001110Y024781D01*
X003460Y022431D01*
X003460Y018031D01*
X003686Y017805D01*
X003686Y017787D01*
X003463Y017578D02*
X003463Y017564D01*
X003909Y018032D02*
X003710Y018231D01*
X003710Y023181D01*
X001110Y025781D01*
X000910Y025781D01*
X003909Y018032D02*
X003909Y018009D01*
X004911Y018009D02*
X004911Y018032D01*
X005110Y018231D01*
X005110Y023181D01*
X007710Y025781D01*
X007910Y025781D01*
X007910Y024781D02*
X007710Y024781D01*
X005360Y022431D01*
X005360Y018031D01*
X005165Y017837D01*
X005165Y017787D01*
X005134Y017787D01*
X005357Y017578D02*
X005610Y017831D01*
X005610Y021681D01*
X007710Y023781D01*
X007910Y023781D01*
X007910Y022781D02*
X007710Y022781D01*
X005860Y020931D01*
X005860Y017631D01*
X005579Y017350D01*
X005579Y017341D01*
X005802Y017118D02*
X005847Y017118D01*
X005847Y017168D01*
X006110Y017431D01*
X006110Y020181D01*
X007710Y021781D01*
X007910Y021781D01*
X007910Y020781D02*
X007710Y020781D01*
X006360Y019431D01*
X006360Y017231D01*
X006075Y016946D01*
X006075Y016896D01*
X006025Y016896D01*
X006252Y016723D02*
X006610Y017081D01*
X006610Y018681D01*
X007710Y019781D01*
X007910Y019781D01*
X007910Y018781D02*
X007710Y018781D01*
X006860Y017931D01*
X006860Y016831D01*
X006479Y016450D01*
X006470Y016450D01*
X006693Y016228D02*
X007110Y016645D01*
X007110Y017181D01*
X007710Y017781D01*
X007910Y017781D01*
X007910Y016781D02*
X007710Y016781D01*
X006934Y016005D01*
X006915Y016005D01*
X006757Y016228D02*
X006693Y016228D01*
X006252Y016673D02*
X006252Y016723D01*
X006247Y016673D02*
X006252Y016673D01*
X006915Y014557D02*
X007692Y013781D01*
X007910Y013781D01*
X007110Y013381D02*
X007710Y012781D01*
X007910Y012781D01*
X007910Y011781D02*
X007710Y011781D01*
X006860Y012631D01*
X006860Y013731D01*
X006479Y014112D01*
X006470Y014112D01*
X006302Y013889D02*
X006302Y013839D01*
X006610Y013531D01*
X006610Y011881D01*
X007710Y010781D01*
X007910Y010781D01*
X007910Y009781D02*
X007710Y009781D01*
X006360Y011131D01*
X006360Y013331D01*
X006025Y013666D01*
X006025Y013666D01*
X005802Y013444D02*
X006110Y013136D01*
X006110Y010381D01*
X007710Y008781D01*
X007910Y008781D01*
X007910Y007781D02*
X007710Y007781D01*
X005860Y009631D01*
X005860Y012931D01*
X005579Y013212D01*
X005579Y013221D01*
X005393Y012998D02*
X005610Y012781D01*
X005610Y008881D01*
X007710Y006781D01*
X007910Y006781D01*
X007110Y013381D02*
X007110Y013917D01*
X006693Y014335D01*
X006302Y013889D02*
X006247Y013889D01*
X005393Y012998D02*
X005357Y012998D01*
X004938Y012553D02*
X004911Y012553D01*
X003909Y012553D02*
X003882Y012553D01*
X003463Y012985D02*
X003210Y012731D01*
X003210Y008881D01*
X003463Y012985D02*
X003463Y012998D01*
X003018Y013439D02*
X003018Y013444D01*
X005357Y017564D02*
X005357Y017578D01*
X007138Y015782D02*
X007139Y015781D01*
X007910Y015781D01*
X007910Y014781D02*
X007410Y014781D01*
X007409Y014780D02*
X007138Y014780D01*
D16*
X005610Y006981D02*
X005560Y006931D01*
M02*
