%
M48
M72
T01C0.0276
T02C0.0400
T03C0.0787
%
T01
X5240Y4808
X4925Y4296
X4610Y4808
X4295Y4296
X3980Y4808
T02
X910Y25781
X910Y24781
X910Y23781
X910Y22781
X910Y21781
X910Y20781
X910Y19781
X910Y18781
X910Y17781
X910Y16781
X910Y15781
X910Y14781
X910Y13781
X910Y12781
X910Y11781
X910Y10781
X910Y9781
X910Y8781
X910Y7781
X910Y6781
X910Y5781
X910Y4781
X7910Y4781
X7910Y5781
X7910Y6781
X7910Y7781
X7910Y8781
X7910Y9781
X7910Y10781
X7910Y11781
X7910Y12781
X7910Y13781
X7910Y14781
X7910Y15781
X7910Y16781
X7910Y17781
X7910Y18781
X7910Y19781
X7910Y20781
X7910Y21781
X7910Y22781
X7910Y23781
X7910Y24781
X7910Y25781
T03
X3173Y2780
X6047Y2780
M30
